<?xml version="1.0" encoding="UTF-8"?>
<svg width="44px" height="44px" viewBox="0 0 44 44" version="1.1" xmlns="http://www.w3.org/2000/svg" xmlns:xlink="http://www.w3.org/1999/xlink">
    <g id="xlsx-to-json" stroke="none" stroke-width="1" fill="none" fill-rule="evenodd">
        <rect id="bg" fill="#33AC6C" x="0" y="0" width="44" height="44" rx="4"></rect>
        
        <!-- Left Side: XLSX File Icon -->
        <g id="xlsx-icon" transform="translate(4, 12)">
            <path d="M12,0 L2,0 C0.9,0 0,0.9 0,2 L0,20 C0,21.1 0.9,22 2,22 L12,22 C13.1,22 14,21.1 14,20 L14,2 C14,0.9 13.1,0 12,0 Z" fill="#FFFFFF" fill-rule="nonzero"></path>
            <text x="7" y="15" font-family="Arial" font-size="8" text-anchor="middle" fill="#33AC6C" font-weight="bold">XLS</text>
        </g>
        
        <!-- Right Side: JSON Icon -->
        <g id="json-icon" transform="translate(24, 12)">
            <path d="M12,0 L2,0 C0.9,0 0,0.9 0,2 L0,20 C0,21.1 0.9,22 2,22 L12,22 C13.1,22 14,21.1 14,20 L14,2 C14,0.9 13.1,0 12,0 Z" fill="#FFFFFF" fill-rule="nonzero"></path>
            <g transform="translate(3, 6)">
                <text x="4" y="9" font-family="Courier" font-size="7" fill="#33AC6C" font-weight="bold">{ }</text>
            </g>
        </g>
        
        <!-- Convert Arrow -->
        <g id="arrow" transform="translate(18, 20)">
            <path d="M0,2 L8,2 L4,6 Z" fill="#FFFFFF" fill-rule="nonzero"></path>
        </g>
    </g>
</svg> 